<svg xmlns="http://www.w3.org/2000/svg" viewBox="0 0 64 64" width="64" height="64">
  <rect width="64" height="64" rx="12" fill="#F7F5EE"/>
  <rect x="22" y="9" width="20" height="6" rx="2" fill="#CDAE86"/>
  <rect x="19" y="15" width="26" height="3" rx="1.5" fill="#B08F63"/>
  <rect x="26" y="18" width="12" height="4" fill="#DDE6E1"/>
  <path d="M17 27a6 6 0 0 1 6-6h18a6 6 0 0 1 6 6v22a6 6 0 0 1-6 6H23a6 6 0 0 1-6-6z" fill="#DDE6E1" stroke="#B4C2BC" stroke-width="1.5"/>
  <path d="M18.5 36h27v11.5a5 5 0 0 1-5 5h-17a5 5 0 0 1-5-5z" fill="#5C7F4A" opacity="0.9"/>
  <rect x="14" y="33" width="36" height="9" rx="1.5" fill="#CDAE86"/>
  <rect x="14" y="33" width="36" height="2" rx="1" fill="#F26882"/>
  <rect x="20" y="37" width="2" height="3" fill="#2E2A26" opacity="0.45"/>
  <rect x="25" y="37" width="9" height="3" fill="#2E2A26" opacity="0.45"/>
</svg>
